<svg xmlns="http://www.w3.org/2000/svg"
 width="1872.000000pt" height="1872.000000pt" viewBox="0 0 1872.000000 1872.000000"
 preserveAspectRatio="xMidYMid meet">
<g transform="translate(0.000000,1872.000000) scale(0.100000,-0.100000)"
fill="#000000" stroke="none">
<path d="M8918 14265 c-3 -3 -18 -7 -34 -9 -82 -10 -315 -92 -334 -117 -3 -3
-16 -10 -30 -14 -14 -4 -36 -16 -50 -25 -14 -10 -29 -19 -35 -20 -10 -3 -50
-27 -145 -89 -30 -19 -58 -34 -62 -33 -5 1 -8 -2 -8 -6 0 -4 -35 -32 -78 -60
-44 -29 -88 -62 -100 -72 -12 -11 -24 -20 -26 -20 -3 0 -14 -6 -23 -14 -43
-36 -103 -83 -138 -111 -21 -16 -44 -36 -51 -42 -7 -7 -17 -13 -23 -13 -6 0
-11 -4 -11 -8 0 -4 -21 -24 -47 -45 -27 -20 -64 -50 -83 -67 -35 -32 -117
-103 -156 -137 -53 -46 -171 -151 -204 -183 -21 -19 -83 -78 -139 -130 -291
-270 -638 -617 -1156 -1155 -51 -53 -257 -272 -315 -335 -18 -19 -82 -89 -144
-154 -127 -136 -148 -159 -231 -252 -33 -36 -81 -89 -107 -116 -27 -27 -48
-51 -48 -53 0 -2 -17 -22 -37 -43 -21 -21 -69 -74 -108 -117 -38 -43 -81 -90
-95 -105 -14 -16 -52 -58 -85 -96 -33 -37 -75 -82 -94 -100 -18 -19 -30 -34
-27 -34 3 0 -11 -17 -31 -38 -21 -21 -57 -60 -81 -87 -23 -28 -55 -64 -70 -80
-15 -17 -54 -61 -87 -99 -33 -37 -73 -82 -90 -100 -16 -18 -48 -54 -70 -80
-22 -27 -56 -65 -75 -86 -20 -21 -51 -57 -70 -81 -19 -23 -55 -64 -80 -90 -25
-27 -55 -61 -67 -76 -12 -15 -32 -40 -45 -54 -42 -47 -125 -143 -168 -194 -24
-27 -46 -52 -49 -55 -4 -3 -58 -66 -121 -140 -63 -74 -126 -148 -141 -165 -15
-16 -72 -82 -125 -145 -54 -63 -101 -117 -104 -120 -3 -3 -41 -48 -84 -100
-44 -52 -84 -99 -90 -105 -6 -5 -24 -26 -39 -45 -16 -19 -46 -55 -67 -80 -89
-103 -238 -279 -275 -325 -22 -26 -53 -63 -70 -82 -16 -18 -39 -45 -50 -59
-11 -14 -25 -31 -32 -38 -6 -7 -35 -42 -64 -77 -29 -35 -63 -75 -76 -88 -12
-13 -39 -45 -60 -72 -20 -27 -41 -49 -45 -49 -4 0 -8 -6 -8 -14 0 -8 -4 -16
-8 -18 -7 -2 -86 -92 -142 -162 -20 -24 -86 -104 -114 -136 -11 -14 -39 -47
-61 -75 -22 -27 -45 -54 -51 -60 -6 -5 -30 -35 -54 -65 -24 -30 -51 -62 -60
-71 -8 -9 -28 -33 -45 -55 -16 -21 -42 -52 -57 -68 -16 -16 -28 -32 -28 -35 0
-3 -22 -30 -49 -58 -26 -29 -46 -53 -44 -53 2 0 -8 -12 -21 -27 -56 -64 -121
-143 -184 -222 -15 -19 -34 -41 -42 -50 -8 -9 -42 -50 -75 -91 -33 -41 -64
-80 -70 -86 -5 -6 -26 -30 -45 -54 -19 -24 -43 -52 -52 -62 -10 -10 -18 -22
-18 -28 0 -5 -4 -10 -8 -10 -4 0 -26 -24 -47 -52 -22 -29 -47 -60 -55 -68 -33
-36 -70 -80 -70 -85 0 -2 -13 -19 -30 -37 -25 -29 -167 -201 -264 -322 -34
-42 -143 -174 -181 -218 -13 -16 -20 -28 -17 -28 4 0 2 -4 -4 -8 -26 -17 -307
-371 -331 -417 -46 -88 -38 -226 18 -308 29 -42 99 -107 116 -107 7 0 13 -5
13 -11 0 -5 4 -8 9 -4 5 3 15 -1 23 -8 14 -14 198 -21 198 -7 0 4 12 10 28 13
49 10 109 66 225 210 63 78 126 154 140 169 15 16 24 28 22 28 -7 0 26 39 53
63 12 11 22 27 22 34 0 7 3 13 8 13 4 0 26 24 49 53 75 94 88 110 103 127 8 9
62 74 120 145 57 72 107 132 110 135 3 3 43 52 90 110 109 134 121 150 143
172 9 10 17 23 17 28 0 6 4 10 8 10 4 0 24 21 45 48 20 26 46 59 59 74 13 14
30 35 38 45 21 26 102 124 122 148 9 11 56 67 103 125 130 157 151 183 172
206 10 12 54 66 98 119 44 54 85 103 90 109 6 6 42 49 80 96 39 47 80 96 91
110 32 37 94 111 139 165 22 27 48 57 58 67 9 10 17 21 17 24 0 4 8 14 18 23
9 9 34 36 54 61 20 25 47 57 60 72 13 15 33 40 45 55 12 15 30 37 40 48 10 11
41 47 68 80 28 33 55 65 60 71 6 6 25 29 43 52 19 23 43 51 54 64 11 13 37 43
58 68 21 25 47 55 57 66 10 12 36 43 58 70 22 27 50 59 63 72 12 13 22 25 22
28 0 3 10 15 23 28 12 13 38 43 57 66 19 23 40 47 45 54 6 6 50 58 99 116 49
58 95 110 103 116 7 6 13 14 13 18 0 3 8 14 18 24 9 10 37 42 62 71 64 75 122
142 143 163 9 10 17 20 17 23 0 3 10 16 23 29 23 25 51 56 106 121 57 68 135
157 164 187 15 16 27 31 27 35 0 3 8 13 18 22 10 9 60 66 112 126 101 117 136
158 160 184 8 9 44 50 79 91 35 41 67 77 70 80 4 3 31 34 61 69 30 35 64 74
75 85 11 12 45 50 75 85 30 35 64 73 75 85 11 12 49 55 85 96 36 41 78 88 93
104 16 17 52 57 80 89 27 32 66 75 86 96 20 21 61 67 91 101 30 34 64 72 75
84 11 13 56 62 100 111 44 49 94 103 110 120 17 17 64 69 105 114 41 46 91
100 110 121 19 20 67 71 105 112 39 42 113 121 165 177 101 109 124 133 375
396 215 226 737 748 914 915 178 167 178 168 285 265 175 160 200 180 209 177
4 -1 7 4 7 11 0 6 15 22 33 35 17 12 48 37 68 55 87 77 341 276 426 333 32 21
60 41 63 44 18 20 279 172 300 176 3 0 18 6 33 12 52 22 54 19 51 -70 -2 -46
-5 -96 -8 -113 -2 -16 -7 -52 -11 -80 -3 -27 -11 -67 -16 -88 -6 -21 -12 -50
-14 -65 -1 -15 -20 -90 -40 -167 -20 -77 -37 -147 -38 -155 -1 -8 -5 -17 -9
-21 -4 -3 -9 -18 -11 -35 -2 -16 -9 -40 -15 -54 -6 -14 -17 -45 -23 -70 -15
-53 -14 -51 -22 -70 -3 -8 -27 -78 -53 -155 -60 -178 -161 -455 -174 -478 -6
-10 -8 -22 -5 -27 3 -4 2 -10 -3 -12 -4 -1 -24 -46 -44 -98 -41 -107 -166
-414 -193 -475 -10 -22 -19 -43 -19 -47 -1 -3 -4 -10 -8 -14 -5 -4 -8 -16 -8
-26 0 -10 -5 -18 -12 -18 -6 0 -8 -3 -5 -6 4 -4 -2 -23 -12 -43 -10 -20 -29
-61 -41 -91 -13 -30 -36 -83 -51 -118 -16 -35 -29 -65 -29 -67 0 -3 -13 -34
-30 -69 -16 -36 -40 -91 -54 -123 -27 -64 -68 -155 -129 -283 -22 -47 -40 -91
-40 -97 0 -7 -4 -13 -9 -13 -4 0 -8 -5 -8 -12 0 -6 -11 -34 -24 -62 -13 -28
-41 -87 -62 -131 -20 -44 -38 -82 -39 -85 -3 -11 -45 -100 -99 -212 -31 -65
-56 -122 -56 -128 0 -5 -4 -10 -10 -10 -5 0 -9 -3 -8 -7 4 -15 -14 -53 -24
-53 -6 0 -8 -3 -5 -6 4 -4 0 -19 -8 -33 -8 -14 -49 -98 -90 -186 -108 -228
-109 -229 -120 -237 -5 -4 -7 -8 -3 -8 4 0 -31 -76 -77 -170 -47 -93 -84 -171
-83 -172 2 -2 -8 -20 -20 -40 -13 -21 -21 -38 -17 -38 3 0 1 -6 -5 -12 -5 -7
-139 -271 -298 -586 -398 -795 -418 -835 -431 -849 -6 -7 -10 -14 -9 -15 3 -3
-54 -120 -62 -128 -3 -3 -18 -34 -35 -70 -16 -36 -32 -67 -35 -70 -3 -3 -19
-32 -35 -65 -17 -33 -34 -63 -40 -67 -7 -5 -7 -8 0 -8 7 0 7 -3 0 -8 -5 -4
-34 -54 -62 -112 -29 -58 -84 -163 -121 -235 -38 -71 -97 -185 -133 -253 -136
-261 -157 -301 -218 -417 -35 -66 -73 -138 -84 -160 -11 -22 -24 -43 -29 -46
-5 -3 -9 -9 -9 -13 1 -7 -32 -75 -87 -176 -19 -36 -53 -99 -75 -140 -22 -41
-52 -97 -67 -125 -47 -85 -155 -300 -159 -315 -2 -8 -5 -40 -7 -72 -5 -122 70
-246 183 -300 39 -19 65 -23 138 -23 80 1 96 4 140 29 69 39 86 56 173 176 42
58 80 107 84 108 5 2 8 10 8 17 0 8 6 18 13 22 7 4 30 34 51 65 21 32 46 65
56 76 9 10 19 23 21 29 2 5 14 23 27 39 12 16 54 72 93 124 38 52 79 106 89
120 10 14 44 59 74 100 30 41 58 80 63 85 4 6 21 28 38 50 16 22 33 42 37 43
4 2 8 9 8 16 0 6 8 19 18 28 27 26 43 48 35 48 -4 0 0 6 8 13 9 6 63 75 120
152 57 77 106 142 109 145 3 3 41 52 85 110 44 58 85 111 92 118 7 7 13 16 13
20 0 4 16 25 35 47 19 22 38 45 43 50 91 122 118 155 124 155 5 0 8 5 8 10 0
6 23 39 50 73 28 34 55 67 60 73 5 7 73 92 151 190 157 196 159 199 175 217 6
7 33 40 59 72 27 33 51 62 54 65 3 3 35 41 71 85 35 44 70 86 77 93 7 7 13 18
13 24 0 6 3 8 6 5 4 -3 20 13 37 36 17 23 40 51 51 62 12 11 37 41 57 65 20
25 46 56 58 70 56 64 128 147 151 171 14 15 48 53 75 84 28 32 61 70 75 85 14
15 66 71 115 125 117 128 452 463 539 540 37 33 80 72 96 87 15 15 30 24 34
21 3 -4 6 -2 6 4 0 28 322 260 437 315 96 45 101 45 110 -10 14 -86 9 -323
-12 -482 -6 -49 -16 -115 -20 -140 -13 -72 -17 -97 -20 -120 -3 -29 -27 -158
-40 -220 -3 -14 -10 -47 -15 -75 -12 -59 -12 -62 -40 -185 -26 -123 -28 -128
-35 -170 -3 -19 -8 -42 -11 -50 -3 -8 -8 -26 -10 -40 -3 -14 -9 -41 -14 -60
-5 -19 -12 -50 -15 -69 -3 -19 -8 -37 -10 -41 -2 -4 -7 -22 -10 -41 -3 -19
-10 -52 -16 -74 -5 -22 -12 -51 -15 -65 -2 -14 -7 -33 -10 -42 -3 -9 -7 -27
-9 -40 -3 -13 -8 -36 -12 -53 -4 -16 -7 -32 -8 -35 -1 -3 -5 -21 -10 -40 -4
-19 -9 -42 -10 -50 0 -9 -4 -21 -9 -28 -4 -6 -5 -12 -2 -12 2 0 0 -15 -5 -32
-6 -18 -12 -45 -14 -60 -2 -15 -9 -46 -16 -70 -7 -24 -13 -54 -15 -67 -2 -13
-8 -47 -14 -75 -6 -28 -13 -60 -16 -71 -2 -11 -8 -42 -14 -70 -21 -102 -35
-176 -45 -230 -9 -53 -15 -89 -25 -140 -5 -27 -11 -68 -14 -90 -3 -22 -9 -69
-15 -105 -15 -97 -23 -169 -26 -232 -1 -31 -5 -60 -7 -65 -13 -23 1 -458 17
-533 3 -14 8 -38 11 -54 3 -16 9 -37 14 -47 6 -10 10 -24 10 -33 0 -8 10 -36
22 -63 12 -26 22 -50 23 -53 8 -23 21 -48 34 -66 9 -12 23 -32 31 -45 26 -41
147 -156 179 -170 17 -8 31 -17 31 -21 0 -5 3 -7 8 -6 4 0 25 -7 47 -17 86
-39 165 -53 285 -50 118 3 132 5 235 32 33 8 65 16 70 17 6 2 27 10 49 19 21
9 42 17 46 17 5 0 32 12 62 26 29 15 69 34 88 43 19 9 72 37 117 64 45 26 84
47 88 47 3 0 11 5 18 11 15 13 148 99 153 99 2 0 12 6 21 14 10 8 73 55 139
103 161 117 274 206 427 336 12 11 39 33 61 50 21 18 50 43 65 57 14 14 44 41
66 60 91 79 190 168 235 210 26 25 114 108 196 185 238 224 824 817 1034 1045
18 19 67 71 109 115 42 45 114 123 161 174 47 51 110 120 140 152 47 50 99
107 212 231 13 14 51 57 83 93 33 37 74 82 90 99 17 18 50 56 75 85 25 29 59
67 75 85 17 18 59 66 95 106 36 41 79 89 95 108 59 65 71 79 125 142 30 35 70
79 88 98 17 18 32 36 32 39 0 2 6 10 13 17 6 7 39 43 72 81 33 38 69 78 80 91
11 12 27 31 35 41 66 78 146 171 159 184 9 9 36 40 61 70 95 112 123 144 131
147 5 2 9 8 9 13 0 5 8 17 18 27 9 10 35 40 57 66 22 27 51 61 65 76 14 15 39
45 55 66 17 21 37 45 45 53 9 9 40 45 70 81 30 36 57 67 60 70 4 4 66 79 110
134 8 10 26 30 40 45 14 14 37 42 51 61 15 19 35 44 45 55 11 11 37 43 59 70
22 27 47 57 55 66 18 19 41 47 95 114 22 28 48 57 57 66 10 9 18 19 18 23 0 3
8 14 18 24 9 10 35 40 57 67 22 27 46 54 53 61 6 7 12 15 12 18 0 3 8 14 18
24 9 10 35 40 58 67 23 28 65 79 95 115 46 54 102 124 199 244 8 10 20 23 25
30 12 12 359 439 403 495 15 18 36 43 47 55 11 12 36 42 55 66 43 56 46 59 71
90 11 14 33 40 47 59 25 32 112 138 139 171 7 8 31 38 52 65 22 28 46 57 54
65 7 9 26 34 42 55 17 22 39 49 50 61 11 11 29 33 40 48 11 16 25 33 30 40 6
6 26 31 45 56 19 25 39 50 45 56 5 6 24 28 40 49 17 21 35 43 40 49 6 6 23 29
40 51 16 22 34 45 40 51 12 13 38 46 136 169 39 50 83 106 99 125 16 19 42 53
59 75 31 40 66 85 86 108 6 7 26 32 45 57 34 45 60 75 93 111 9 10 15 19 11
19 -3 0 9 15 25 33 17 17 31 35 31 39 0 4 6 13 13 20 7 7 30 35 52 63 22 27
45 55 50 62 6 6 21 26 35 44 14 18 31 38 38 45 6 7 12 17 12 22 0 6 4 12 8 14
6 2 133 159 204 253 5 6 24 28 43 50 90 102 123 231 89 341 -10 33 -20 61 -23
64 -4 3 -17 22 -31 42 -14 21 -29 38 -33 38 -4 0 -17 9 -29 20 -57 52 -208 77
-283 46 -19 -8 -35 -13 -35 -10 0 3 -20 -9 -45 -26 -26 -18 -91 -89 -153 -167
-59 -75 -119 -150 -134 -167 -15 -17 -28 -34 -28 -37 0 -3 -9 -17 -21 -30 -11
-13 -30 -37 -42 -53 -12 -16 -34 -42 -49 -59 -16 -16 -28 -33 -28 -36 0 -3
-10 -17 -22 -31 -13 -14 -35 -41 -49 -60 -15 -19 -35 -45 -45 -57 -11 -12 -28
-33 -38 -48 -11 -14 -27 -34 -35 -44 -9 -10 -27 -33 -41 -51 -14 -19 -40 -52
-58 -74 -42 -51 -49 -61 -92 -116 -19 -25 -42 -54 -52 -65 -14 -16 -132 -163
-160 -200 -4 -5 -49 -62 -100 -126 -51 -63 -104 -130 -118 -148 -14 -19 -33
-41 -42 -49 -10 -9 -18 -20 -18 -24 0 -5 -8 -16 -17 -26 -26 -27 -60 -68 -99
-119 -18 -24 -39 -50 -46 -57 -7 -8 -22 -26 -32 -41 -11 -14 -28 -36 -39 -48
-11 -12 -40 -49 -65 -82 -26 -33 -51 -65 -57 -71 -5 -6 -21 -25 -35 -44 -14
-18 -35 -43 -46 -56 -12 -13 -43 -50 -68 -83 -26 -33 -52 -66 -59 -73 -7 -7
-57 -69 -112 -138 -55 -69 -107 -134 -117 -145 -9 -11 -62 -75 -117 -143 -55
-67 -107 -130 -116 -138 -8 -8 -15 -18 -15 -22 0 -4 -16 -24 -35 -44 -19 -20
-35 -39 -35 -42 0 -3 -8 -14 -17 -24 -27 -28 -64 -72 -103 -122 -19 -25 -37
-47 -40 -50 -3 -3 -25 -30 -50 -60 -25 -30 -49 -60 -55 -66 -15 -17 -74 -88
-144 -174 -110 -134 -126 -153 -136 -164 -6 -6 -28 -33 -50 -61 -22 -27 -48
-57 -57 -66 -10 -9 -18 -21 -18 -27 0 -6 -4 -12 -9 -14 -8 -3 -38 -37 -126
-143 -37 -45 -85 -102 -139 -165 -11 -14 -55 -66 -96 -115 -41 -50 -80 -96
-87 -103 -7 -7 -29 -33 -50 -59 -21 -26 -47 -56 -58 -68 -11 -12 -35 -40 -52
-61 -18 -21 -41 -49 -50 -60 -24 -28 -115 -135 -128 -148 -5 -6 -32 -38 -59
-71 -27 -33 -59 -69 -70 -81 -12 -11 -39 -43 -61 -69 -22 -27 -49 -59 -60 -71
-11 -12 -33 -39 -50 -60 -16 -21 -37 -45 -46 -53 -18 -18 -146 -164 -224 -256
-27 -32 -66 -76 -85 -96 -19 -21 -45 -50 -57 -66 -13 -15 -41 -48 -63 -73 -22
-24 -40 -48 -40 -52 0 -4 -7 -8 -15 -8 -8 0 -15 -4 -15 -10 0 -5 -8 -18 -17
-28 -22 -23 -88 -96 -174 -193 -37 -41 -77 -86 -90 -100 -13 -14 -54 -59 -90
-100 -37 -41 -77 -86 -90 -100 -13 -14 -58 -64 -100 -110 -42 -46 -92 -100
-110 -120 -19 -20 -72 -77 -119 -128 -47 -51 -107 -116 -135 -145 -27 -29
-113 -119 -190 -201 -77 -81 -187 -196 -245 -255 -58 -59 -131 -135 -163 -169
-32 -34 -59 -61 -61 -61 -6 0 -196 -195 -196 -202 0 -4 -3 -8 -7 -8 -5 0 -62
-53 -129 -118 -107 -103 -214 -204 -363 -341 -24 -23 -48 -41 -53 -41 -4 0 -8
-7 -8 -15 0 -8 -4 -15 -9 -15 -4 0 -19 -10 -33 -22 -72 -66 -212 -187 -292
-253 -27 -22 -54 -44 -60 -50 -32 -29 -206 -165 -211 -165 -4 0 -12 -6 -19
-12 -7 -7 -25 -22 -40 -33 -16 -11 -47 -34 -70 -51 -22 -17 -75 -52 -116 -79
-41 -26 -86 -55 -100 -65 -14 -9 -41 -25 -60 -35 -19 -10 -37 -21 -40 -24 -15
-19 -270 -127 -270 -114 0 3 -6 1 -12 -4 -7 -5 -30 -10 -51 -12 -34 -2 -39 0
-51 31 -8 18 -15 49 -17 68 -2 19 -6 40 -10 45 -10 14 1 480 11 480 1 0 3 15
5 34 2 19 7 53 10 75 4 23 8 51 8 64 1 12 3 22 7 22 3 0 6 23 7 52 1 29 5 59
9 67 4 9 8 30 10 46 5 35 11 70 18 105 3 13 8 42 12 65 7 46 12 70 14 70 1 0
3 9 5 20 3 11 16 76 30 145 15 69 29 136 31 150 3 14 10 43 16 65 5 22 12 49
14 60 2 11 15 72 30 135 14 63 28 124 30 135 8 40 13 61 23 105 7 25 14 56 17
70 2 14 7 33 10 42 3 10 7 30 10 45 3 16 14 64 24 108 10 44 21 91 24 105 2
14 10 48 16 75 18 78 31 137 46 215 3 14 10 45 15 70 10 42 13 58 23 113 2 12
7 34 11 48 3 14 8 41 10 60 2 19 4 34 5 34 2 0 7 23 14 70 4 22 10 65 15 95 5
30 7 58 4 63 -2 4 -1 7 4 7 4 0 9 12 9 28 1 15 4 45 8 67 3 22 9 64 11 92 3
29 8 72 11 95 9 77 12 371 4 433 -16 117 -18 130 -29 176 -6 26 -16 59 -22 75
-7 16 -13 31 -13 34 -3 12 -30 75 -35 80 -4 3 -12 17 -19 31 -8 14 -25 39 -39
55 -14 16 -32 38 -42 49 -9 11 -36 36 -61 55 -25 19 -47 37 -50 40 -12 14
-140 62 -199 73 -112 23 -268 7 -391 -40 -8 -3 -19 -7 -25 -9 -5 -1 -41 -16
-80 -34 -38 -17 -72 -32 -75 -32 -3 0 -18 -10 -34 -21 -17 -12 -44 -29 -62
-38 -38 -19 -241 -161 -272 -189 -12 -11 -25 -20 -31 -20 -5 0 -11 -3 -13 -7
-1 -5 -32 -33 -68 -63 -36 -30 -70 -59 -76 -65 -7 -5 -37 -32 -69 -60 -31 -27
-81 -72 -110 -100 -28 -27 -73 -69 -99 -93 -25 -23 -46 -47 -46 -52 0 -6 -4
-10 -9 -10 -9 0 -191 -183 -318 -319 -43 -47 -103 -111 -134 -143 -31 -32 -53
-58 -50 -58 3 0 1 -4 -4 -8 -6 -4 -46 -47 -90 -97 -44 -49 -82 -92 -85 -95 -3
-3 -35 -39 -70 -80 -35 -41 -69 -80 -74 -86 -15 -16 -86 -100 -102 -121 -28
-37 -11 1 75 174 138 277 331 672 332 680 1 5 9 19 19 33 9 14 20 37 24 53 3
15 11 27 16 27 6 0 10 6 10 13 0 6 31 76 69 153 96 196 115 238 113 247 -1 4
3 7 8 7 6 0 10 4 10 10 0 5 20 52 44 102 24 51 69 147 101 212 31 66 57 125
58 130 1 6 4 13 7 16 6 6 65 130 66 139 0 3 21 49 46 101 25 52 56 118 68 145
125 279 127 283 176 390 21 44 38 85 40 90 2 9 62 148 103 239 11 23 31 70 46
106 23 58 34 82 65 155 39 91 60 142 62 155 2 8 5 17 8 20 3 3 25 55 49 115
24 61 49 124 56 140 35 82 77 195 74 197 -2 2 4 17 13 33 28 55 48 105 48 125
0 11 4 20 9 20 5 0 12 15 16 33 10 42 7 32 37 112 25 65 158 452 157 458 0 1
2 9 5 17 10 30 50 165 52 175 1 6 3 12 4 15 2 5 8 29 13 53 1 6 6 18 10 25 5
6 6 12 3 12 -3 0 1 19 10 42 8 22 12 43 9 46 -3 3 0 11 6 19 6 7 9 13 6 13 -4
0 0 17 6 38 7 20 13 44 12 52 -1 8 2 22 6 30 4 9 11 36 14 60 11 66 13 82 20
115 51 284 36 553 -41 722 -27 60 -98 155 -140 188 -20 17 -42 35 -48 40 -20
19 -120 64 -171 76 -50 12 -238 22 -247 14z"/>
</g>
</svg>
